<svg id="Artwork" xmlns="http://www.w3.org/2000/svg" xmlns:xlink="http://www.w3.org/1999/xlink" viewBox="0 0 522.67 117.33"><defs><style>.cls-1{fill:#0032a0;}.cls-2{fill:#ffc72c;}.cls-3{fill:url(#linear-gradient);}.cls-4{fill:#41b6e6;}</style><linearGradient id="linear-gradient" x1="195.83" y1="79.99" x2="233.96" y2="57.97" gradientUnits="userSpaceOnUse"><stop offset="0" stop-color="#0032a0"/><stop offset="1" stop-color="#41b6e6"/></linearGradient></defs><path class="cls-1" d="M109,30.91H96.28L76.05,87.77h12.7l3.34-10.56h20.36l3.34,10.56H129.2ZM95.1,67.7l7.17-22.6,7.17,22.6ZM66.18,74l3.68,10.33a31.12,31.12,0,0,1-16.08,4.38c-17.05,0-29.81-12-29.81-29.4,0-16.65,13.57-29.41,30.3-29.41a30.39,30.39,0,0,1,15.48,4.36L66.13,44.47a19.7,19.7,0,0,0-11.86-4.38C44,40.09,36.4,48.54,36.4,59.34c0,11.37,6.74,19.25,17.87,19.25A18.67,18.67,0,0,0,66.18,74ZM171.85,35.11l-3.49,9.82c-4.34-3.36-8.44-5.09-12.74-5.09-3.9,0-7.39,1.95-7.39,5.69,0,4.39,5.36,5.6,9.75,7.15,8,2.76,17.7,6.5,17.7,18.44,0,12.34-11.61,17.62-21.52,17.62a31,31,0,0,1-18.77-6.37L139.1,72c4.84,4.33,9.8,6.88,15.14,6.88,4.55,0,9-2.19,9-7.23,0-4.87-5.2-6.74-11-8.85-7.39-2.76-15.68-6-15.68-16.9s9.18-15.92,18.6-15.92A28.7,28.7,0,0,1,171.85,35.11Z"/><path class="cls-1" d="M316.4,44.84c-2.19,0-3.93,1.09-3.93,3.09s2.61,2.92,4.73,3.63c3.89,1.33,8.27,3.07,8.27,8.39,0,5.82-5.29,8.21-9.67,8.21a13.21,13.21,0,0,1-9.9-4.24l3.17-3.06c2.31,2.23,4,3.25,6.77,3.25,2.34,0,4.68-1.13,4.68-3.89,0-2.53-2.68-3.48-5.44-4.46-3.55-1.29-7.29-3-7.29-7.6,0-5,4-7.37,8.35-7.37a13.6,13.6,0,0,1,8.54,3l-2.76,3.36A8.86,8.86,0,0,0,316.4,44.84Z"/><path class="cls-1" d="M345.38,66a9.76,9.76,0,0,1-6.57,2.2c-5.67,0-9.91-4.12-9.91-10.21A9.93,9.93,0,0,1,339,47.78a10.27,10.27,0,0,1,6.27,2.08L343,53.26a5.85,5.85,0,0,0-3.85-1.47c-3.18,0-5.6,2.76-5.6,6.16,0,3.63,2.54,6.2,5.56,6.2A5.93,5.93,0,0,0,343,62.71Z"/><path class="cls-1" d="M348.85,45.06V40.79h4.58v4.27Zm0,22.64V48.24h4.58V67.7Z"/><path class="cls-1" d="M364.24,56.74v11h-4.68V41.25h14.13v4h-9.45v7.49h9.45v4Z"/><path class="cls-1" d="M377.91,45.06V40.79h4.57v4.27Zm0,22.64V48.24h4.57V67.7Z"/><path class="cls-1" d="M392.07,48.24l.23,2.87a7.49,7.49,0,0,1,6.2-3.33,6.55,6.55,0,0,1,5.37,2.5c1.43,1.89,1.74,4.46,1.74,7.29V67.7H401V57.91a9.77,9.77,0,0,0-.75-4.65,3.13,3.13,0,0,0-2.95-1.47,6,6,0,0,0-4.84,3V67.7h-4.57V48.24Z"/><path class="cls-1" d="M429.44,67.7h-4.2L425,65.21a7.26,7.26,0,0,1-6.09,3c-5.37,0-9.34-4.58-9.34-10.25,0-5.33,3.82-10.13,9.42-10.13a8.07,8.07,0,0,1,5.82,2.46V39.36h4.61Zm-4.61-13.45a6.24,6.24,0,0,0-4.95-2.46c-3.82,0-5.64,3.25-5.64,6.24,0,3.17,2.12,6.12,5.56,6.12a5.67,5.67,0,0,0,5-3Z"/><path class="cls-1" d="M438.27,59.12c.3,2.91,2.27,5.29,5.44,5.29a5.67,5.67,0,0,0,5.37-3l3.1,2.08a9.58,9.58,0,0,1-8.73,4.69c-6,0-9.79-4.27-9.79-10.06s4.27-10.32,9.79-10.32a8.84,8.84,0,0,1,9.18,9,14.87,14.87,0,0,1-.19,2.3Zm5.29-7.67c-2.8,0-4.42,1.89-5,4.38H448A4.39,4.39,0,0,0,443.56,51.45Z"/><path class="cls-1" d="M461.34,51c1.17-1.89,2.72-3.22,4.72-3.22a7.7,7.7,0,0,1,2.35.34l-1,4.27a3.71,3.71,0,0,0-1.85-.41,4.57,4.57,0,0,0-4,2.61V67.7h-4.61V48.24h4.19Z"/><path class="cls-1" d="M471.63,53.11V40.26h3.1l.15,2A5.23,5.23,0,0,1,479,40c3.67,0,4.65,2.72,4.65,6.2v7h-3.4V46.35c0-1.67-.07-3.59-2.12-3.59A4.08,4.08,0,0,0,475,44.68v8.43Z"/><path class="cls-2" d="M237.36,21.35v5L233,28.86l-4.34-2.51v-5L233,18.84ZM263,36.18l-4.34,2.5v5l4.34,2.5,4.34-2.5v-5Zm4.34,37.16L263,70.84l-4.34,2.5v5l4.34,2.5,4.34-2.5Zm0-17.33L263,53.51,258.71,56v5l4.33,2.5,4.34-2.5Zm-15-26L248,27.51,243.7,30v5l4.33,2.5,4.34-2.5Z"/><path class="cls-3" d="M205,35l-9.19,5.31v5l4.34,2.51,9.19-5.31v-5ZM234,58v5L200.17,82.49,195.83,80V75l33.79-19.51Zm5.42,36.55-9.19,5.3-4.34-2.5v-5L235,87l4.34,2.51Zm-2.2-16.07-22,12.71-4.34-2.51v-5l22-12.71,4.33,2.5Zm-15-26-22,12.71-4.34-2.5v-5l22-12.71,4.33,2.51Z"/><path class="cls-4" d="M224.76,28.62v5l-7.14,4.12-4.34-2.5v-5l7.15-4.13Zm25.69,14.83L237.88,50.7v5l4.34,2.5L254.78,51V46Zm4.33,37.16-4.33-2.5-7.15,4.13v5l4.34,2.51,7.14-4.13Zm0-17.33-4.33-2.5-9.34,5.39v5l4.33,2.5,9.34-5.39Zm-15-26-4.33-2.5-9.34,5.39v5l4.33,2.51,9.34-5.4Z"/></svg>